<svg width="42" height="42" viewBox="0 0 42 42" fill="none" xmlns="http://www.w3.org/2000/svg">
<path d="M8.12335 5.19477C9.17238 3.3254 11.139 2.15768 13.2824 2.13148L28.2391 1.94865C30.3825 1.92245 32.3771 3.04175 33.4715 4.88491L41.1081 17.7463C42.2025 19.5895 42.2305 21.8765 41.1815 23.7459L33.8615 36.7901C32.8125 38.6594 30.8458 39.8272 28.7024 39.8534L13.7458 40.0362C11.6024 40.0624 9.60776 38.9431 8.51336 37.0999L0.876716 24.2385C-0.217691 22.3954 -0.245649 20.1084 0.803378 18.239L8.12335 5.19477Z" fill="#FFB800"/>
<path d="M29 25.5951C29 25.8651 28.9399 26.1426 28.8122 26.4126C28.6845 26.6826 28.5193 26.9376 28.3015 27.1776C27.9334 27.5826 27.5278 27.8751 27.0696 28.0626C26.6189 28.2501 26.1307 28.3476 25.6049 28.3476C24.8388 28.3476 24.02 28.1676 23.1562 27.8001C22.2924 27.4326 21.4286 26.9376 20.5724 26.3151C19.7086 25.6851 18.8898 24.9876 18.1087 24.2151C17.335 23.4351 16.6365 22.6176 16.013 21.7626C15.3971 20.9076 14.9014 20.0526 14.5408 19.2051C14.1803 18.3501 14 17.5326 14 16.7526C14 16.2426 14.0901 15.7551 14.2704 15.3051C14.4507 14.8476 14.7361 14.4276 15.1342 14.0526C15.6149 13.5801 16.1407 13.3476 16.6965 13.3476C16.9069 13.3476 17.1172 13.3926 17.305 13.4826C17.5003 13.5726 17.673 13.7076 17.8082 13.9026L19.5508 16.3551C19.686 16.5426 19.7837 16.7151 19.8513 16.8801C19.9189 17.0376 19.9564 17.1951 19.9564 17.3376C19.9564 17.5176 19.9039 17.6976 19.7987 17.8701C19.7011 18.0426 19.5583 18.2226 19.3781 18.4026L18.8072 18.9951C18.7246 19.0776 18.687 19.1751 18.687 19.2951C18.687 19.3551 18.6945 19.4076 18.7096 19.4676C18.7321 19.5276 18.7546 19.5726 18.7697 19.6176C18.9049 19.8651 19.1377 20.1876 19.4682 20.5776C19.8062 20.9676 20.1667 21.3651 20.5573 21.7626C20.9629 22.1601 21.3535 22.5276 21.7516 22.8651C22.1422 23.1951 22.4652 23.4201 22.7206 23.5551C22.7581 23.5701 22.8032 23.5926 22.8558 23.6151C22.9159 23.6376 22.976 23.6451 23.0436 23.6451C23.1713 23.6451 23.2689 23.6001 23.3515 23.5176L23.9224 22.9551C24.1102 22.7676 24.2904 22.6251 24.4632 22.5351C24.636 22.4301 24.8087 22.3776 24.9965 22.3776C25.1392 22.3776 25.2894 22.4076 25.4547 22.4751C25.6199 22.5426 25.7927 22.6401 25.9805 22.7676L28.4667 24.5301C28.662 24.6651 28.7972 24.8226 28.8798 25.0101C28.9549 25.1976 29 25.3851 29 25.5951Z" fill="#0F6FB7"/>
</svg>
