<svg width="97" height="97" viewBox="0 0 97 97" fill="none" xmlns="http://www.w3.org/2000/svg">
<path d="M20.7666 10.3245C22.515 7.20892 25.7927 5.26272 29.3651 5.21905L67.3495 4.75474C70.9219 4.71107 74.2462 6.57656 76.0702 9.64851L95.4646 42.3118C97.2886 45.3838 97.3352 49.1955 95.5868 52.3111L76.9967 85.4387C75.2483 88.5544 71.9706 90.5006 68.3982 90.5442L30.4138 91.0085C26.8414 91.0522 23.5171 89.1867 21.693 86.1148L2.29871 53.4514C0.474702 50.3795 0.428109 46.5678 2.17649 43.4522L20.7666 10.3245Z" fill="#FFB800"/>
<path fill-rule="evenodd" clip-rule="evenodd" d="M37 22V29H60V22H37ZM35 18C33.8954 18 33 18.8954 33 20V31C33 32.1046 33.8954 33 35 33H62C63.1046 33 64 32.1046 64 31V20C64 18.8954 63.1046 18 62 18H35Z" fill="#0F6FB7"/>
<path fill-rule="evenodd" clip-rule="evenodd" d="M37 44V51H60V44H37ZM35 40C33.8954 40 33 40.8954 33 42V53C33 54.1046 33.8954 55 35 55H62C63.1046 55 64 54.1046 64 53V42C64 40.8954 63.1046 40 62 40H35Z" fill="#0F6FB7"/>
<path fill-rule="evenodd" clip-rule="evenodd" d="M37 65V72H60V65H37ZM35 61C33.8954 61 33 61.8954 33 63V74C33 75.1046 33.8954 76 35 76H62C63.1046 76 64 75.1046 64 74V63C64 61.8954 63.1046 61 62 61H35Z" fill="#0F6FB7"/>
<path fill-rule="evenodd" clip-rule="evenodd" d="M74 27H69V23H74C76.2091 23 78 24.7909 78 27V45C78 47.2091 76.2091 49 74 49H69V45H74V27Z" fill="#0F6FB7"/>
<path fill-rule="evenodd" clip-rule="evenodd" d="M23 50H28V46H23C20.7909 46 19 47.7909 19 50V68C19 70.2091 20.7909 72 23 72H28V68H23V50Z" fill="#0F6FB7"/>
</svg>
