<svg width="1920" height="402" viewBox="0 0 1920 402" fill="none" xmlns="http://www.w3.org/2000/svg">
<path d="M-182 16H1577C1579.21 16 1581 17.7908 1581 20V189C1581 191.209 1579.21 193 1577 193H342V209H1577C1588.05 209 1597 200.046 1597 189V20C1597 8.95431 1588.05 0 1577 0H-182C-193.046 0 -202 8.9543 -202 20V173H-186V20C-186 17.7909 -184.209 16 -182 16Z" fill="#AAD2F0"/>
<path d="M1972 193H2101C2112.05 193 2121 201.954 2121 213V382C2121 393.046 2112.05 402 2101 402H1972V386H2101C2103.21 386 2105 384.209 2105 382V213C2105 210.791 2103.21 209 2101 209H1972V193Z" fill="#AAD2F0"/>
<path d="M1147 386H342C339.791 386 338 384.209 338 382V213C338 210.791 339.791 209 342 209H1147V193H342C330.954 193 322 201.954 322 213V382C322 393.046 330.954 402 342 402H1147V386Z" fill="#AAD2F0"/>
</svg>
